<svg xmlns="http://www.w3.org/2000/svg">
<defs>
    <symbol id="i-mail" viewBox="0 0 24 24"><rect x="2" y="4" width="20" height="16" rx="2"/><path d="m2 7 10 6 10-6"/></symbol>
    <symbol id="i-github" viewBox="0 0 24 24"><path d="M9 19c-5 1.5-5-2.5-7-3m14 6v-3.87a3.37 3.37 0 0 0-.94-2.61c3.14-.35 6.44-1.54 6.44-7A5.44 5.44 0 0 0 20 4.77 5.07 5.07 0 0 0 19.91 1S18.73.65 16 2.48a13.38 13.38 0 0 0-7 0C6.27.65 5.09 1 5.09 1A5.07 5.07 0 0 0 5 4.77 5.44 5.44 0 0 0 3.5 8.55c0 5.42 3.3 6.61 6.44 7A3.37 3.37 0 0 0 9 18.13V22"/></symbol>
    <symbol id="i-linkedin" viewBox="0 0 24 24"><path d="M16 8a6 6 0 0 1 6 6v7h-4v-7a2 2 0 0 0-4 0v7h-4V9h4v1.5A5.9 5.9 0 0 1 16 8z"/><rect x="2" y="9" width="4" height="12"/><circle cx="4" cy="4" r="2"/></symbol>
    <symbol id="i-file" viewBox="0 0 24 24"><path d="M14 2H6a2 2 0 0 0-2 2v16a2 2 0 0 0 2 2h12a2 2 0 0 0 2-2V8z"/><path d="M14 2v6h6"/><path d="M9 13h6M9 17h6"/></symbol>
    <symbol id="i-pin" viewBox="0 0 24 24"><path d="M20 10c0 6-8 12-8 12s-8-6-8-12a8 8 0 0 1 16 0z"/><circle cx="12" cy="10" r="3"/></symbol>
    <symbol id="i-flask" viewBox="0 0 24 24"><path d="M10 2v7L4.5 19a2 2 0 0 0 1.8 3h11.4a2 2 0 0 0 1.8-3L14 9V2"/><path d="M8.5 2h7"/><path d="M7 15h10"/></symbol>
    <symbol id="i-code" viewBox="0 0 24 24"><path d="m16 18 6-6-6-6"/><path d="m8 6-6 6 6 6"/></symbol>
    <symbol id="i-book" viewBox="0 0 24 24"><path d="M4 19.5A2.5 2.5 0 0 1 6.5 17H20"/><path d="M6.5 2H20v20H6.5A2.5 2.5 0 0 1 4 19.5v-15A2.5 2.5 0 0 1 6.5 2z"/></symbol>
    <symbol id="i-grad" viewBox="0 0 24 24"><path d="m22 9-10-5L2 9l10 5 10-5z"/><path d="M6 11.5V16c0 1.7 2.7 3 6 3s6-1.3 6-3v-4.5"/><path d="M22 9v6"/></symbol>
    <symbol id="i-trophy" viewBox="0 0 24 24"><path d="M8 21h8M12 17v4"/><path d="M7 4h10v6a5 5 0 0 1-10 0z"/><path d="M17 5h3a2 2 0 0 1-2 4h-1M7 5H4a2 2 0 0 0 2 4h1"/></symbol>
    <symbol id="i-cpu" viewBox="0 0 24 24"><rect x="5" y="5" width="14" height="14" rx="2"/><rect x="10" y="10" width="4" height="4"/><path d="M9 2v3M15 2v3M9 19v3M15 19v3M2 9h3M2 15h3M19 9h3M19 15h3"/></symbol>
    <symbol id="i-db" viewBox="0 0 24 24"><ellipse cx="12" cy="5" rx="8" ry="3"/><path d="M4 5v14c0 1.7 3.6 3 8 3s8-1.3 8-3V5"/><path d="M4 12c0 1.7 3.6 3 8 3s8-1.3 8-3"/></symbol>
    <symbol id="i-wrench" viewBox="0 0 24 24"><path d="M14.7 6.3a4.5 4.5 0 0 0 6 6l-8.4 8.4a2.1 2.1 0 0 1-3-3l8.4-8.4a4.5 4.5 0 0 0-3-3z" transform="rotate(90 12 12)"/><path d="M14.7 6.3a4.5 4.5 0 1 0 3 3L21 6l-3-3z"/></symbol>
    <symbol id="i-spark" viewBox="0 0 24 24"><path d="M12 3v3M12 18v3M3 12h3M18 12h3M5.6 5.6l2.2 2.2M16.2 16.2l2.2 2.2M18.4 5.6l-2.2 2.2M7.8 16.2l-2.2 2.2"/></symbol>
    <symbol id="i-news" viewBox="0 0 24 24"><path d="M4 22h16a2 2 0 0 0 2-2V4a2 2 0 0 0-2-2H8a2 2 0 0 0-2 2v16a2 2 0 0 1-4 0V9"/><path d="M12 6h6M12 10h6M12 14h6M12 18h6"/></symbol>
    <symbol id="i-ext" viewBox="0 0 24 24"><path d="M18 13v6a2 2 0 0 1-2 2H5a2 2 0 0 1-2-2V8a2 2 0 0 1 2-2h6"/><path d="M15 3h6v6"/><path d="M10 14 21 3"/></symbol>
    <symbol id="i-k" viewBox="0 0 24 24"><path d="M6 3v18"/><path d="M18 3 7.5 13.5"/><path d="m11 10 7 11"/></symbol>
    <symbol id="i-moon" viewBox="0 0 24 24"><path d="M21 12.8A9 9 0 1 1 11.2 3a7 7 0 0 0 9.8 9.8z"/></symbol>
    <symbol id="i-sun" viewBox="0 0 24 24"><circle cx="12" cy="12" r="4"/><path d="M12 2v2M12 20v2M4.9 4.9l1.4 1.4M17.7 17.7l1.4 1.4M2 12h2M20 12h2M4.9 19.1l1.4-1.4M17.7 6.3l1.4-1.4"/></symbol>
    <symbol id="i-play" viewBox="0 0 24 24"><path d="M8 5v14l11-7z" fill="currentColor"/></symbol>
  </defs>
</svg>